<svg width="131" height="23" viewBox="0 0 131 23" fill="none" xmlns="http://www.w3.org/2000/svg">
<g clip-path="url(#clip0_2_5210)">
<path d="M20.2743 8.47994C20.2162 8.30892 20.1093 8.15864 19.9668 8.04766C19.8243 7.93668 19.6524 7.86986 19.4724 7.85545L14.2058 7.43697L11.9268 2.39208C11.8542 2.22959 11.7361 2.09158 11.5869 1.99471C11.4376 1.89783 11.2634 1.84623 11.0855 1.84614C10.9075 1.84604 10.7333 1.89745 10.584 1.99416C10.4346 2.09087 10.3164 2.22875 10.2436 2.39115L7.96457 7.43697L2.69797 7.85545C2.52102 7.86947 2.35185 7.93417 2.21071 8.04181C2.06957 8.14945 1.96243 8.29548 1.9021 8.46242C1.84178 8.62936 1.83083 8.81014 1.87056 8.98314C1.91029 9.15614 1.99902 9.31403 2.12613 9.43793L6.01812 13.232L4.64165 19.1924C4.59986 19.3728 4.61325 19.5616 4.6801 19.7343C4.74695 19.907 4.86416 20.0557 5.01653 20.1609C5.1689 20.2662 5.3494 20.3232 5.53459 20.3246C5.71978 20.3261 5.90112 20.2718 6.05507 20.1688L11.0852 16.8154L16.1153 20.1688C16.2727 20.2733 16.4582 20.3271 16.6471 20.323C16.8359 20.3188 17.0189 20.2569 17.1716 20.1457C17.3242 20.0344 17.4391 19.8791 17.5008 19.7005C17.5625 19.522 17.568 19.3289 17.5167 19.1471L15.8271 13.2348L20.0174 9.4638C20.2918 9.21622 20.3925 8.83007 20.2743 8.47994V8.47994Z" fill="#F3CD03"/>
<path d="M47.4834 8.47994C47.4253 8.30892 47.3184 8.15864 47.1759 8.04766C47.0334 7.93668 46.8616 7.86986 46.6815 7.85545L41.4149 7.43697L39.1359 2.39208C39.0633 2.22959 38.9453 2.09158 38.796 1.99471C38.6467 1.89783 38.4726 1.84623 38.2946 1.84614C38.1167 1.84604 37.9425 1.89745 37.7931 1.99416C37.6437 2.09087 37.5255 2.22875 37.4527 2.39115L35.1737 7.43697L29.9071 7.85545C29.7301 7.86947 29.561 7.93417 29.4198 8.04181C29.2787 8.14945 29.1716 8.29548 29.1112 8.46242C29.0509 8.62936 29.04 8.81014 29.0797 8.98314C29.1194 9.15614 29.2081 9.31403 29.3353 9.43793L33.2272 13.232L31.8508 19.1924C31.809 19.3728 31.8224 19.5616 31.8892 19.7343C31.9561 19.907 32.0733 20.0557 32.2257 20.1609C32.378 20.2662 32.5585 20.3232 32.7437 20.3246C32.9289 20.3261 33.1102 20.2718 33.2642 20.1688L38.2943 16.8154L43.3244 20.1688C43.4818 20.2733 43.6674 20.3271 43.8562 20.323C44.045 20.3188 44.2281 20.2569 44.3807 20.1457C44.5333 20.0344 44.6482 19.8791 44.7099 19.7005C44.7716 19.522 44.7772 19.3289 44.7258 19.1471L43.0362 13.2348L47.2266 9.4638C47.5009 9.21622 47.6016 8.83007 47.4834 8.47994V8.47994Z" fill="#F3CD03"/>
<path d="M74.6886 8.47994C74.6305 8.30892 74.5236 8.15864 74.3811 8.04766C74.2386 7.93668 74.0668 7.86986 73.8867 7.85545L68.6201 7.43697L66.3411 2.39208C66.2685 2.22959 66.1505 2.09158 66.0012 1.99471C65.8519 1.89783 65.6778 1.84623 65.4998 1.84614C65.3219 1.84604 65.1477 1.89745 64.9983 1.99416C64.8489 2.09087 64.7307 2.22875 64.6579 2.39115L62.3789 7.43697L57.1123 7.85545C56.9353 7.86947 56.7662 7.93417 56.625 8.04181C56.4839 8.14945 56.3768 8.29548 56.3164 8.46242C56.2561 8.62936 56.2452 8.81014 56.2849 8.98314C56.3246 9.15614 56.4133 9.31403 56.5405 9.43793L60.4324 13.232L59.056 19.1924C59.0142 19.3728 59.0276 19.5616 59.0944 19.7343C59.1613 19.907 59.2785 20.0557 59.4309 20.1609C59.5832 20.2662 59.7637 20.3232 59.9489 20.3246C60.1341 20.3261 60.3154 20.2718 60.4694 20.1688L65.4995 16.8154L70.5296 20.1688C70.687 20.2733 70.8726 20.3271 71.0614 20.323C71.2502 20.3188 71.4333 20.2569 71.5859 20.1457C71.7385 20.0344 71.8534 19.8791 71.9151 19.7005C71.9768 19.522 71.9824 19.3289 71.931 19.1471L70.2414 13.2348L74.4318 9.4638C74.7061 9.21622 74.8068 8.83007 74.6886 8.47994V8.47994Z" fill="#F3CD03"/>
<path d="M101.896 8.47994C101.838 8.30892 101.731 8.15864 101.588 8.04766C101.446 7.93668 101.274 7.86986 101.094 7.85545L95.8273 7.43697L93.5483 2.39208C93.4757 2.22959 93.3576 2.09158 93.2083 1.99471C93.0591 1.89783 92.8849 1.84623 92.707 1.84614C92.529 1.84604 92.3548 1.89745 92.2054 1.99416C92.0561 2.09087 91.9378 2.22875 91.8651 2.39115L89.5861 7.43697L84.3195 7.85545C84.1425 7.86947 83.9733 7.93417 83.8322 8.04181C83.6911 8.14945 83.5839 8.29548 83.5236 8.46242C83.4633 8.62936 83.4523 8.81014 83.492 8.98314C83.5318 9.15614 83.6205 9.31403 83.7476 9.43793L87.6396 13.232L86.2631 19.1924C86.2213 19.3728 86.2347 19.5616 86.3016 19.7343C86.3684 19.907 86.4857 20.0557 86.638 20.1609C86.7904 20.2662 86.9709 20.3232 87.1561 20.3246C87.3413 20.3261 87.5226 20.2718 87.6766 20.1688L92.7067 16.8154L97.7368 20.1688C97.8941 20.2733 98.0797 20.3271 98.2686 20.323C98.4574 20.3188 98.6404 20.2569 98.7931 20.1457C98.9457 20.0344 99.0606 19.8791 99.1223 19.7005C99.184 19.522 99.1895 19.3289 99.1382 19.1471L97.4486 13.2348L101.639 9.4638C101.913 9.21622 102.014 8.83007 101.896 8.47994V8.47994Z" fill="#F3CD03"/>
<path d="M114.85 13.2315L113.473 19.1919C113.431 19.3724 113.443 19.5615 113.51 19.7346C113.576 19.9077 113.694 20.0567 113.846 20.1622C113.999 20.2677 114.18 20.3247 114.365 20.3258C114.55 20.3269 114.732 20.272 114.886 20.1684L119.916 16.815L124.946 20.1684C125.103 20.2728 125.289 20.3266 125.478 20.3225C125.667 20.3184 125.85 20.2565 126.002 20.1452C126.155 20.0339 126.27 19.8786 126.331 19.7001C126.393 19.5216 126.399 19.3284 126.347 19.1466L124.658 13.2343L128.848 9.46333C128.982 9.34249 129.078 9.18496 129.124 9.01022C129.169 8.83548 129.163 8.6512 129.105 8.48017C129.047 8.30913 128.94 8.15885 128.797 8.0479C128.655 7.93695 128.483 7.87021 128.303 7.85591L123.036 7.43651L120.757 2.39161C120.685 2.22917 120.567 2.09122 120.417 1.99443C120.268 1.89764 120.094 1.84614 119.916 1.84614C119.738 1.84614 119.564 1.89764 119.414 1.99443C119.265 2.09122 119.147 2.22917 119.074 2.39161L116.795 7.43651L111.529 7.85499C111.352 7.86901 111.182 7.93371 111.041 8.04135C110.9 8.14899 110.793 8.29502 110.733 8.46196C110.672 8.6289 110.661 8.80968 110.701 8.98268C110.741 9.15568 110.83 9.31357 110.957 9.43747L114.85 13.2315V13.2315ZM117.485 9.23515C117.65 9.22216 117.809 9.16505 117.944 9.06981C118.079 8.97456 118.186 8.84469 118.254 8.6938L119.916 5.01614L121.578 8.6938C121.645 8.84469 121.753 8.97456 121.888 9.06981C122.023 9.16505 122.181 9.22216 122.346 9.23515L126.016 9.52615L122.994 12.2458C122.732 12.4823 122.627 12.8463 122.723 13.1863L123.881 17.2371L120.429 14.9359C120.278 14.8343 120.1 14.78 119.917 14.78C119.735 14.78 119.556 14.8343 119.405 14.9359L115.798 17.3406L116.768 13.141C116.804 12.9865 116.799 12.8255 116.755 12.6734C116.71 12.5214 116.627 12.3833 116.513 12.2726L113.707 9.53631L117.485 9.23515V9.23515Z" fill="#F3CD03"/>
</g>
<defs>
<clipPath id="clip0_2_5210">
<rect width="130.068" height="22.0136" fill="white" transform="scale(1.00716)"/>
</clipPath>
</defs>
</svg>
