<svg width="93" height="93" viewBox="0 0 93 93" fill="none" xmlns="http://www.w3.org/2000/svg">
<path d="M0 46.5002C0 20.8188 20.8188 0 46.5002 0V0C72.1815 0 93.0004 20.8188 93.0004 46.5002V46.5002C93.0004 72.1815 72.1815 93.0004 46.5002 93.0004V93.0004C20.8188 93.0004 0 72.1815 0 46.5002V46.5002Z" fill="#FC724D"/>
<g clip-path="url(#clip0_2_4933)">
<path d="M54.7754 47.9091L39.5987 56.9718C38.3107 57.7401 36.6578 56.8097 36.6578 55.2608V37.1356C36.6578 35.5891 38.3083 34.6563 39.5987 35.4271L54.7754 44.4898C55.0684 44.6619 55.312 44.9107 55.4814 45.211C55.6508 45.5112 55.74 45.8522 55.74 46.1994C55.74 46.5466 55.6508 46.8877 55.4814 47.1879C55.312 47.4882 55.0684 47.737 54.7754 47.9091V47.9091Z" fill="white"/>
</g>
<defs>
<clipPath id="clip0_2_4933">
<rect width="19" height="23" fill="white" transform="translate(36.9599 34.9503) scale(1.00432)"/>
</clipPath>
</defs>
</svg>
