<svg width="72" height="72" viewBox="0 0 72 72" fill="none" xmlns="http://www.w3.org/2000/svg">
<g clip-path="url(#clip0_2_4768)">
<g clip-path="url(#clip1_2_4768)">
<g clip-path="url(#clip2_2_4768)">
<g clip-path="url(#clip3_2_4768)">
<path d="M52.875 65.25V68.625C52.875 69.2438 52.3688 69.75 51.75 69.75H20.25C19.6312 69.75 19.125 69.2438 19.125 68.625V65.25H29.25H42.75H52.875Z" fill="#969FAA"/>
</g>
<g clip-path="url(#clip4_2_4768)">
<path d="M29.25 60.75V65.25H19.125V63C19.125 61.7625 20.1375 60.75 21.375 60.75H29.25Z" fill="#969FAA"/>
</g>
<g clip-path="url(#clip5_2_4768)">
<path d="M52.875 63V65.25H42.75V60.75H50.625C51.8625 60.75 52.875 61.7625 52.875 63Z" fill="#969FAA"/>
</g>
<g clip-path="url(#clip6_2_4768)">
<path d="M42.75 60.75V65.25H29.25V60.75V56.25H42.75V60.75Z" fill="#AAB2BD"/>
</g>
<g clip-path="url(#clip7_2_4768)">
<path d="M67.5 47.25V54C67.5 55.2375 66.4875 56.25 65.25 56.25H42.75H29.25H4.5C3.2625 56.25 2.25 55.2375 2.25 54V47.25H6.75H24.75H42.75H67.5Z" fill="#CCD1D9"/>
</g>
<g clip-path="url(#clip8_2_4768)">
<path d="M67.5 47.25H2.25V13.5C2.25 12.2569 3.25688 11.25 4.5 11.25H67.5V47.25Z" fill="#69D6F4"/>
</g>
<g clip-path="url(#clip9_2_4768)">
<path d="M49.5 38.25H54V42.75H49.5V38.25Z" fill="#FF826E"/>
</g>
<g clip-path="url(#clip10_2_4768)">
<path d="M58.5 29.25H63V33.75H58.5V29.25Z" fill="#FF826E"/>
</g>
<g clip-path="url(#clip11_2_4768)">
<path d="M58.5 38.25H63V42.75H58.5V38.25Z" fill="#B4DD7F"/>
</g>
<g clip-path="url(#clip12_2_4768)">
<path d="M49.5 29.25H54V33.75H49.5V29.25Z" fill="#B4DD7F"/>
</g>
<g clip-path="url(#clip13_2_4768)">
<path d="M16.875 18C16.875 18.5625 16.9312 19.1137 17.0437 19.6425L17.01 19.6537L16.2 19.17C13.8262 17.7412 12.375 15.1875 12.375 12.42V12.375C12.375 11.9925 12.3975 11.6212 12.4425 11.25C12.9938 6.1875 17.2912 2.25 22.5 2.25H36C36.6188 2.25 37.1813 2.4975 37.5863 2.91375C38.0025 3.31875 38.25 3.88125 38.25 4.5C38.25 6.21 37.62 7.79625 36.5513 9.01125C35.595 10.125 34.2675 10.9237 32.7375 11.2275L32.625 11.25H28.6875C26.0775 11.25 23.4675 10.9237 20.925 10.2937C20.475 10.1812 20.0137 10.125 19.5525 10.125C18.0675 10.125 16.875 11.3175 16.875 12.8025V18Z" fill="#B27946"/>
</g>
<g clip-path="url(#clip14_2_4768)">
<path d="M37.0577 11.25C37.1027 11.6212 37.1252 11.9925 37.1252 12.375V12.42C37.1252 15.1875 35.674 17.7412 33.3002 19.17L32.4902 19.6537C32.5802 19.1925 32.6252 18.72 32.6252 18.2362V11.25L32.7377 11.2275C34.2677 10.9237 35.5952 10.125 36.5515 9.01123C36.799 9.73123 36.979 10.4737 37.0577 11.25V11.25Z" fill="#B27946"/>
</g>
<g clip-path="url(#clip15_2_4768)">
<path d="M34.29 28.9688L33.75 28.8788L29.25 28.125L24.75 34.875L20.25 28.125L15.75 28.8788L15.21 28.9688C10.3275 29.7788 6.75 33.9975 6.75 38.9475V47.25H24.75H42.75V38.9475C42.75 33.9975 39.1725 29.7788 34.29 28.9688Z" fill="#E6E9ED"/>
</g>
<g clip-path="url(#clip16_2_4768)">
<path d="M33.75 42.75C34.9926 42.75 36 41.7426 36 40.5C36 39.2574 34.9926 38.25 33.75 38.25C32.5074 38.25 31.5 39.2574 31.5 40.5C31.5 41.7426 32.5074 42.75 33.75 42.75Z" fill="#FCD770"/>
</g>
<g clip-path="url(#clip17_2_4768)">
<path d="M21.0487 24.9526C22.1625 25.5376 23.4338 25.8751 24.7838 25.8751H24.9862C26.235 25.8751 27.4275 25.5714 28.4737 25.0314L29.25 28.1251L24.75 34.8751L20.25 28.1251L21.0487 24.9526Z" fill="#F0D0B4"/>
</g>
<g clip-path="url(#clip18_2_4768)">
<path d="M21.0487 24.9525C19.0237 23.8725 17.5387 21.9487 17.0437 19.6425C16.9312 19.1137 16.875 18.5625 16.875 18V12.8025C16.875 11.3175 18.0675 10.125 19.5525 10.125C20.0137 10.125 20.475 10.1812 20.925 10.2937C23.4675 10.9237 26.0775 11.25 28.6875 11.25H32.625V18.2362C32.625 18.72 32.58 19.1925 32.49 19.6537C32.0512 22.005 30.5325 23.9737 28.4737 25.0312C27.4275 25.5712 26.235 25.875 24.9862 25.875H24.7838C23.4338 25.875 22.1625 25.5375 21.0487 24.9525V24.9525Z" fill="#F0D0B4"/>
</g>
<g clip-path="url(#clip19_2_4768)">
<path d="M69.75 4.5V22.5C69.75 23.7375 68.7375 24.75 67.5 24.75H48.375L45.45 28.6537C45.1688 29.025 44.7188 29.25 44.2463 29.25C43.425 29.25 42.75 28.575 42.75 27.7537V11.25V4.5C42.75 3.2625 43.7625 2.25 45 2.25H67.5C68.7375 2.25 69.75 3.2625 69.75 4.5V4.5Z" fill="#E6E9ED"/>
</g>
<g clip-path="url(#clip20_2_4768)">
<path d="M63 12.375V14.625C63 15.2438 62.4938 15.75 61.875 15.75H58.5V19.125C58.5 19.7438 57.9938 20.25 57.375 20.25H55.125C54.5062 20.25 54 19.7438 54 19.125V15.75H50.625C50.0062 15.75 49.5 15.2438 49.5 14.625V12.375C49.5 11.7562 50.0062 11.25 50.625 11.25H54V7.875C54 7.25625 54.5062 6.75 55.125 6.75H57.375C57.9938 6.75 58.5 7.25625 58.5 7.875V11.25H61.875C62.4938 11.25 63 11.7562 63 12.375Z" fill="#FCD770"/>
</g>
</g>
<g clip-path="url(#clip21_2_4768)">
<path d="M21.375 16.875C21.9963 16.875 22.5 16.3713 22.5 15.75C22.5 15.1287 21.9963 14.625 21.375 14.625C20.7537 14.625 20.25 15.1287 20.25 15.75C20.25 16.3713 20.7537 16.875 21.375 16.875Z" fill="black"/>
<path d="M28.125 16.875C28.7463 16.875 29.25 16.3713 29.25 15.75C29.25 15.1287 28.7463 14.625 28.125 14.625C27.5037 14.625 27 15.1287 27 15.75C27 16.3713 27.5037 16.875 28.125 16.875Z" fill="black"/>
<path d="M26.9999 18.8596C26.5713 19.7168 25.7095 20.2501 24.7499 20.2501C23.7903 20.2501 22.9285 19.7168 22.4999 18.8596L22.3818 18.6222L20.3691 19.6291L20.4873 19.8665C21.2995 21.491 22.933 22.5001 24.7499 22.5001C26.5668 22.5001 28.2003 21.491 29.0125 19.8653L29.1306 19.628L27.118 18.6211L26.9999 18.8596Z" fill="black"/>
<path d="M61.875 10.125H59.625V7.875C59.625 6.63412 58.6159 5.625 57.375 5.625H55.125C53.8841 5.625 52.875 6.63412 52.875 7.875V10.125H50.625C49.3841 10.125 48.375 11.1341 48.375 12.375V14.625C48.375 15.8659 49.3841 16.875 50.625 16.875H52.875V19.125C52.875 20.3659 53.8841 21.375 55.125 21.375H57.375C58.6159 21.375 59.625 20.3659 59.625 19.125V16.875H61.875C63.1159 16.875 64.125 15.8659 64.125 14.625V12.375C64.125 11.1341 63.1159 10.125 61.875 10.125ZM61.875 14.625H57.375V19.125H55.125V14.625H50.625V12.375H55.125V7.875H57.375V12.375L61.875 12.3784V14.625Z" fill="black"/>
<path d="M67.5 1.125H45C43.1392 1.125 41.625 2.63925 41.625 4.5V10.125H38.0149C37.9553 9.83025 37.8844 9.53887 37.8011 9.25087C38.7945 7.911 39.375 6.2595 39.375 4.5C39.375 2.63925 37.8608 1.125 36 1.125H22.5C17.0764 1.125 12.5381 4.98263 11.4818 10.125H4.5C2.63925 10.125 1.125 11.6392 1.125 13.5V54C1.125 55.8608 2.63925 57.375 4.5 57.375H28.125V59.625H21.375C19.5142 59.625 18 61.1392 18 63V68.625C18 69.8659 19.0091 70.875 20.25 70.875H51.75C52.9909 70.875 54 69.8659 54 68.625V63C54 61.1392 52.4858 59.625 50.625 59.625H43.875V57.375H65.25C67.1108 57.375 68.625 55.8608 68.625 54V25.668C69.9311 25.2022 70.875 23.9648 70.875 22.5V4.5C70.875 2.63925 69.3608 1.125 67.5 1.125ZM41.625 12.375V27.7504C41.625 29.1971 42.8029 30.375 44.2496 30.375C45.0709 30.375 45.8561 29.9824 46.3489 29.3254L48.9375 25.875H66.375V46.125H43.875V38.952C43.875 33.4294 39.9217 28.7629 34.4745 27.855L30.1624 27.1361L29.7709 25.569C31.5866 24.3799 32.9287 22.5371 33.4744 20.376L33.8805 20.133C36.576 18.5164 38.25 15.5599 38.25 12.375H41.625ZM14.625 36.1136C12.0611 36.6368 10.125 38.9093 10.125 41.625V43.875H12.375V41.625C12.375 39.7642 13.8892 38.25 15.75 38.25C17.6108 38.25 19.125 39.7642 19.125 41.625V43.875H21.375V41.625C21.375 38.9093 19.4389 36.6368 16.875 36.1136V29.8283L19.7179 29.3546L23.625 35.2159V46.125H7.875V38.952C7.875 34.7996 10.6706 31.2525 14.625 30.2389V36.1136ZM24.9862 24.75H24.7882C21.0454 24.75 18 21.7226 18 18V12.8003C18 11.9453 18.6953 11.25 19.5503 11.25C19.9226 11.25 20.2939 11.2961 20.655 11.3861C23.2808 12.042 25.9841 12.375 28.6886 12.375H31.5V18.2362C31.5 21.8284 28.5784 24.75 24.9862 24.75V24.75ZM24.7882 27H24.9862C25.9335 27 26.8447 26.8448 27.6997 26.5646L28.0373 27.9146L24.75 32.8466L21.4616 27.9146L21.816 26.4994C22.7475 26.8234 23.7476 27 24.7882 27V27ZM25.875 35.2159L29.7821 29.3546L32.625 29.8283V37.3331C31.3189 37.7989 30.375 39.0364 30.375 40.5011C30.375 42.3619 31.8892 43.8761 33.75 43.8761C35.6108 43.8761 37.125 42.3619 37.125 40.5011C37.125 39.0364 36.1811 37.7989 34.875 37.3331V30.2389C38.8294 31.2525 41.625 34.7996 41.625 38.952V46.125H25.875V35.2159ZM34.875 40.5C34.875 41.1199 34.3699 41.625 33.75 41.625C33.1301 41.625 32.625 41.1199 32.625 40.5C32.625 39.8801 33.1301 39.375 33.75 39.375C34.3699 39.375 34.875 39.8801 34.875 40.5ZM35.8988 11.0745C35.9618 11.5121 36 11.9576 36 12.4166C36 14.3392 35.1551 16.1595 33.75 17.4274V12.1297C34.5285 11.8879 35.2474 11.5234 35.8988 11.0745V11.0745ZM22.5 3.375H36C36.6199 3.375 37.125 3.88012 37.125 4.5C37.125 7.22475 35.1855 9.59062 32.5136 10.125H28.6886C26.1664 10.125 23.6475 9.8145 21.2006 9.20362C20.6617 9.06862 20.106 9 19.5503 9C17.4555 9 15.75 10.7055 15.75 12.8003V17.4443C14.3393 16.1753 13.5 14.3347 13.5 12.3739C13.5 7.41262 17.5376 3.375 22.5 3.375V3.375ZM4.5 12.375H11.2522C11.2522 12.3885 11.25 12.402 11.25 12.4166C11.25 15.5599 12.924 18.5164 15.6195 20.1341L16.0796 20.4097C16.6635 22.5011 17.991 24.2843 19.7561 25.4678L19.3388 27.1372L15.0266 27.8561C9.57825 28.7629 5.625 33.4294 5.625 38.952V46.125H3.375V13.5C3.375 12.8801 3.88012 12.375 4.5 12.375V12.375ZM21.375 61.875H28.125V64.125H20.25V63C20.25 62.3801 20.7551 61.875 21.375 61.875ZM20.25 68.625V66.375H51.75V68.625H20.25ZM50.625 61.875C51.2449 61.875 51.75 62.3801 51.75 63V64.125H43.875V61.875H50.625ZM41.625 64.125H30.375V57.375H41.625V64.125ZM65.25 55.125H4.5C3.88012 55.125 3.375 54.6199 3.375 54V48.375H66.375V54C66.375 54.6199 65.8699 55.125 65.25 55.125ZM68.625 22.5C68.625 23.1199 68.1199 23.625 67.5 23.625H47.8125L44.55 27.9754C44.3565 28.2341 43.8761 28.0744 43.875 27.7493V4.5C43.875 3.88012 44.3801 3.375 45 3.375H67.5C68.1199 3.375 68.625 3.88012 68.625 4.5V22.5Z" fill="black"/>
<path d="M64.125 28.125H57.375V34.875H64.125V28.125ZM61.875 32.625H59.625V30.375H61.875V32.625Z" fill="black"/>
<path d="M64.125 37.125H57.375V43.875H64.125V37.125ZM61.875 41.625H59.625V39.375H61.875V41.625Z" fill="black"/>
<path d="M55.125 28.125H48.375V34.875H55.125V28.125ZM52.875 32.625H50.625V30.375H52.875V32.625Z" fill="black"/>
<path d="M55.125 37.125H48.375V43.875H55.125V37.125ZM52.875 41.625H50.625V39.375H52.875V41.625Z" fill="black"/>
<path d="M30.375 50.625H37.125V52.875H30.375V50.625Z" fill="black"/>
<path d="M39.375 50.625H41.625V52.875H39.375V50.625Z" fill="black"/>
</g>
</g>
</g>
<defs>
<clipPath id="clip0_2_4768">
<rect width="72" height="72" fill="white"/>
</clipPath>
<clipPath id="clip1_2_4768">
<rect width="69.75" height="69.75" fill="white" transform="translate(1.125 1.125)"/>
</clipPath>
<clipPath id="clip2_2_4768">
<rect width="67.5" height="67.5" fill="white" transform="translate(2.25 2.25)"/>
</clipPath>
<clipPath id="clip3_2_4768">
<rect width="33.75" height="4.5" fill="white" transform="translate(19.125 65.25)"/>
</clipPath>
<clipPath id="clip4_2_4768">
<rect width="10.125" height="4.5" fill="white" transform="translate(19.125 60.75)"/>
</clipPath>
<clipPath id="clip5_2_4768">
<rect width="10.125" height="4.5" fill="white" transform="translate(42.75 60.75)"/>
</clipPath>
<clipPath id="clip6_2_4768">
<rect width="13.5" height="9" fill="white" transform="translate(29.25 56.25)"/>
</clipPath>
<clipPath id="clip7_2_4768">
<rect width="65.25" height="9" fill="white" transform="translate(2.25 47.25)"/>
</clipPath>
<clipPath id="clip8_2_4768">
<rect width="65.25" height="36" fill="white" transform="translate(2.25 11.25)"/>
</clipPath>
<clipPath id="clip9_2_4768">
<rect width="4.5" height="4.5" fill="white" transform="translate(49.5 38.25)"/>
</clipPath>
<clipPath id="clip10_2_4768">
<rect width="4.5" height="4.5" fill="white" transform="translate(58.5 29.25)"/>
</clipPath>
<clipPath id="clip11_2_4768">
<rect width="4.5" height="4.5" fill="white" transform="translate(58.5 38.25)"/>
</clipPath>
<clipPath id="clip12_2_4768">
<rect width="4.5" height="4.5" fill="white" transform="translate(49.5 29.25)"/>
</clipPath>
<clipPath id="clip13_2_4768">
<rect width="25.875" height="17.4037" fill="white" transform="translate(12.375 2.25)"/>
</clipPath>
<clipPath id="clip14_2_4768">
<rect width="4.63499" height="10.6425" fill="white" transform="translate(32.4902 9.01123)"/>
</clipPath>
<clipPath id="clip15_2_4768">
<rect width="36" height="19.125" fill="white" transform="translate(6.75 28.125)"/>
</clipPath>
<clipPath id="clip16_2_4768">
<rect width="4.5" height="4.5" fill="white" transform="translate(31.5 38.25)"/>
</clipPath>
<clipPath id="clip17_2_4768">
<rect width="9" height="9.9225" fill="white" transform="translate(20.25 24.9526)"/>
</clipPath>
<clipPath id="clip18_2_4768">
<rect width="15.75" height="15.75" fill="white" transform="translate(16.875 10.125)"/>
</clipPath>
<clipPath id="clip19_2_4768">
<rect width="27" height="27" fill="white" transform="translate(42.75 2.25)"/>
</clipPath>
<clipPath id="clip20_2_4768">
<rect width="13.5" height="13.5" fill="white" transform="translate(49.5 6.75)"/>
</clipPath>
<clipPath id="clip21_2_4768">
<rect width="69.75" height="69.75" fill="white" transform="translate(1.125 1.125)"/>
</clipPath>
</defs>
</svg>
