<svg width="140" height="40" viewBox="0 0 140 40" fill="none" xmlns="http://www.w3.org/2000/svg">
<g clip-path="url(#clip0_2_5072)">
<path d="M0 20C0 8.95431 8.95431 0 20 0V0C31.0457 0 40 8.95431 40 20V20C40 31.0457 31.0457 40 20 40V40C8.95431 40 0 31.0457 0 20V20Z" fill="white"/>
<path d="M20.0002 15.9532L18.6358 14.5566L18.6352 14.556C18.2873 14.2018 17.8723 13.9204 17.4144 13.7283C16.9566 13.5362 16.465 13.4372 15.9685 13.4372C15.472 13.4372 14.9804 13.5362 14.5225 13.7283C14.0647 13.9203 13.6497 14.2017 13.3019 14.5559C12.5879 15.2809 12.1877 16.2575 12.1877 17.275C12.1877 18.2926 12.588 19.2693 13.3021 19.9943L13.3024 19.9946L19.7774 26.5508L19.9997 26.776L20.2221 26.5508L26.6971 19.9946L26.6974 19.9943C27.4115 19.2693 27.8117 18.2926 27.8117 17.275C27.8117 16.2575 27.4116 15.2809 26.6976 14.5559C26.3499 14.2015 25.935 13.92 25.4771 13.7279C25.0193 13.5359 24.5278 13.4372 24.0314 13.4375C24.0312 13.4375 24.031 13.4375 24.0307 13.4375L24.031 13.75C23.5738 13.7493 23.1213 13.8409 22.7003 14.0192C22.2793 14.1974 21.8986 14.4587 21.581 14.7875M20.0002 15.9532L21.3571 14.5695L21.3579 14.5687L21.581 14.7875M20.0002 15.9532L21.3563 14.5704M20.0002 15.9532L21.3563 14.5704M21.581 14.7875L21.3563 14.5704M21.581 14.7875L21.3563 14.5704M24.0309 12.8125L24.0307 12.8125C23.4508 12.812 22.8767 12.9273 22.3419 13.1516C21.8072 13.3759 21.3226 13.7047 20.9166 14.1188L20.9155 14.12L20.2217 14.82L19.9997 15.0439L19.7778 14.82L19.084 14.12L19.0832 14.1191C18.6766 13.7058 18.1918 13.3774 17.6571 13.1533C17.1223 12.9292 16.5483 12.8138 15.9685 12.8138C15.3887 12.8138 14.8147 12.9292 14.2799 13.1533C13.7452 13.3774 13.2604 13.7057 12.8538 14.1191L24.0309 12.8125ZM24.0309 12.8125C24.6108 12.8127 25.1849 12.9283 25.7196 13.1526C26.2544 13.3769 26.7391 13.7054 27.1456 14.119C27.9745 14.9629 28.4389 16.0984 28.4389 17.2813C28.4389 18.4639 27.9746 19.5993 27.146 20.4431C27.1458 20.4432 27.1457 20.4434 27.1456 20.4435L19.9997 27.6802M24.0309 12.8125L19.9997 27.6802M19.9997 27.6802L12.8539 20.4435C12.8538 20.4434 12.8537 20.4433 12.8536 20.4432C12.0249 19.5994 11.5605 18.464 11.5605 17.2813C11.5605 16.0985 12.0249 14.9629 12.8538 14.1191L19.9997 27.6802Z" fill="#BDBDBD" stroke="#252B42" stroke-width="0.625"/>
<path d="M50 20C50 8.95431 58.9543 0 70 0V0C81.0457 0 90 8.95431 90 20V20C90 31.0457 81.0457 40 70 40V40C58.9543 40 50 31.0457 50 20V20Z" fill="white"/>
<g clip-path="url(#clip1_2_5072)">
<path d="M60 11.6333C60 11.4654 60.0667 11.3043 60.1855 11.1855C60.3043 11.0667 60.4654 11 60.6334 11H62.5334C62.6747 11 62.8119 11.0473 62.9232 11.1343C63.0345 11.2213 63.1136 11.343 63.1478 11.4801L63.6608 13.5333H78.3672C78.4602 13.5334 78.5521 13.554 78.6362 13.5936C78.7204 13.6331 78.7948 13.6908 78.8541 13.7624C78.9135 13.8339 78.9564 13.9177 78.9797 14.0077C79.0031 14.0977 79.0063 14.1918 78.9892 14.2832L77.0891 24.4165C77.062 24.5617 76.9849 24.6927 76.8714 24.7871C76.7578 24.8815 76.6148 24.9332 76.4672 24.9333H65.0668C64.9192 24.9332 64.7762 24.8815 64.6626 24.7871C64.5491 24.6927 64.472 24.5617 64.4449 24.4165L62.5461 14.3022L62.0394 12.2667H60.6334C60.4654 12.2667 60.3043 12.1999 60.1855 12.0812C60.0667 11.9624 60 11.8013 60 11.6333ZM63.9293 14.8L65.5925 23.6667H75.9415L77.6047 14.8H63.9293ZM66.3335 24.9333C65.6616 24.9333 65.0172 25.2002 64.5421 25.6753C64.067 26.1504 63.8001 26.7948 63.8001 27.4667C63.8001 28.1385 64.067 28.7829 64.5421 29.258C65.0172 29.7331 65.6616 30 66.3335 30C67.0054 30 67.6498 29.7331 68.1249 29.258C68.6 28.7829 68.8669 28.1385 68.8669 27.4667C68.8669 26.7948 68.6 26.1504 68.1249 25.6753C67.6498 25.2002 67.0054 24.9333 66.3335 24.9333ZM75.2005 24.9333C74.5286 24.9333 73.8842 25.2002 73.4091 25.6753C72.934 26.1504 72.6671 26.7948 72.6671 27.4667C72.6671 28.1385 72.934 28.7829 73.4091 29.258C73.8842 29.7331 74.5286 30 75.2005 30C75.8724 30 76.5168 29.7331 76.9919 29.258C77.467 28.7829 77.7339 28.1385 77.7339 27.4667C77.7339 26.7948 77.467 26.1504 76.9919 25.6753C76.5168 25.2002 75.8724 24.9333 75.2005 24.9333ZM66.3335 26.2C66.6695 26.2 66.9917 26.3335 67.2292 26.571C67.4668 26.8085 67.6002 27.1307 67.6002 27.4667C67.6002 27.8026 67.4668 28.1248 67.2292 28.3623C66.9917 28.5999 66.6695 28.7333 66.3335 28.7333C65.9976 28.7333 65.6754 28.5999 65.4378 28.3623C65.2003 28.1248 65.0668 27.8026 65.0668 27.4667C65.0668 27.1307 65.2003 26.8085 65.4378 26.571C65.6754 26.3335 65.9976 26.2 66.3335 26.2ZM75.2005 26.2C75.5364 26.2 75.8586 26.3335 76.0962 26.571C76.3337 26.8085 76.4672 27.1307 76.4672 27.4667C76.4672 27.8026 76.3337 28.1248 76.0962 28.3623C75.8586 28.5999 75.5364 28.7333 75.2005 28.7333C74.8645 28.7333 74.5423 28.5999 74.3048 28.3623C74.0672 28.1248 73.9338 27.8026 73.9338 27.4667C73.9338 27.1307 74.0672 26.8085 74.3048 26.571C74.5423 26.3335 74.8645 26.2 75.2005 26.2V26.2Z" fill="#252B42"/>
</g>
<path d="M100 20C100 8.95431 108.954 0 120 0V0C131.046 0 140 8.95431 140 20V20C140 31.0457 131.046 40 120 40V40C108.954 40 100 31.0457 100 20V20Z" fill="white"/>
<path d="M122.5 20C122.5 20.663 122.237 21.2989 121.768 21.7678C121.299 22.2366 120.663 22.5 120 22.5C119.337 22.5 118.701 22.2366 118.232 21.7678C117.763 21.2989 117.5 20.663 117.5 20C117.5 19.337 117.763 18.7011 118.232 18.2322C118.701 17.7634 119.337 17.5 120 17.5C120.663 17.5 121.299 17.7634 121.768 18.2322C122.237 18.7011 122.5 19.337 122.5 20V20Z" fill="black"/>
<path d="M112 20C112 20 115 14.5 120 14.5C125 14.5 128 20 128 20C128 20 125 25.5 120 25.5C115 25.5 112 20 112 20ZM120 23.5C120.928 23.5 121.818 23.1313 122.475 22.4749C123.131 21.8185 123.5 20.9283 123.5 20C123.5 19.0717 123.131 18.1815 122.475 17.5251C121.818 16.8687 120.928 16.5 120 16.5C119.072 16.5 118.182 16.8687 117.525 17.5251C116.869 18.1815 116.5 19.0717 116.5 20C116.5 20.9283 116.869 21.8185 117.525 22.4749C118.182 23.1313 119.072 23.5 120 23.5V23.5Z" fill="black"/>
</g>
<defs>
<clipPath id="clip0_2_5072">
<rect width="140" height="40" fill="white"/>
</clipPath>
<clipPath id="clip1_2_5072">
<rect width="20" height="20" fill="white" transform="translate(60 10)"/>
</clipPath>
</defs>
</svg>
