<svg width="72" height="72" viewBox="0 0 72 72" fill="none" xmlns="http://www.w3.org/2000/svg">
<g clip-path="url(#clip0_2_4872)">
<g clip-path="url(#clip1_2_4872)">
<g clip-path="url(#clip2_2_4872)">
<g clip-path="url(#clip3_2_4872)">
<path d="M25.0772 36.2025L23.8622 36.5063L21.3759 37.125L21.1059 37.1925C16.4259 38.3625 13.0284 42.3 12.4547 46.9912L10.0247 44.64C5.22094 39.9937 2.44219 33.66 2.27344 27H6.75094L10.1259 36L12.3759 18L15.7509 24.75H18.7547L19.0584 25.6725C18.4059 26.2912 18.0009 27.1575 18.0009 28.125C18.0009 29.0587 18.3834 29.9025 18.9909 30.51C19.5984 31.1175 20.4422 31.5 21.3759 31.5H22.5797H22.5909C22.8272 33.2325 23.6259 34.7625 24.8072 35.9438C24.8972 36.0338 24.9872 36.1237 25.0884 36.1912L25.0772 36.2025Z" fill="#FF826E"/>
</g>
<g clip-path="url(#clip4_2_4872)">
<path d="M35.6621 36.1912C36.9896 35.01 37.9009 33.3563 38.1596 31.5H38.1709H39.3746C40.3084 31.5 41.1521 31.1175 41.7596 30.51C42.1084 30.1613 42.3896 29.7338 42.5471 29.25H42.5584H46.1246L48.3746 34.875L52.8746 14.625L56.2496 27H69.7271C69.5696 33.4688 66.9484 39.6225 62.3921 44.2238C60.5471 43.2788 58.4659 42.75 56.2496 42.75C53.1559 42.75 50.2984 43.785 48.0259 45.54C47.0021 41.5013 43.8296 38.2388 39.6446 37.1925L37.1246 36.5625L36.8884 36.5063L35.6734 36.2025L35.6621 36.1912Z" fill="#FF826E"/>
</g>
<g clip-path="url(#clip5_2_4872)">
<path d="M62.325 8.325C67.0838 13.0838 69.75 19.5188 69.75 26.2463V26.3137C69.75 26.5387 69.75 26.775 69.7275 27H56.25L52.875 14.625L48.375 34.875L46.125 29.25H42.5588H42.5475C42.6825 28.9013 42.75 28.5187 42.75 28.125C42.75 27.1575 42.345 26.2913 41.6925 25.6725L42.255 23.985C42.5813 23.0063 42.75 21.9713 42.75 20.925C42.75 15.5813 38.4187 11.25 33.075 11.25H27.675C24.9975 11.25 22.59 12.33 20.835 14.085C19.08 15.84 18 18.2475 18 20.925C18 21.9713 18.1688 23.0063 18.495 23.985L18.7537 24.75H15.75L12.375 18L10.125 36L6.75 27H2.2725C2.25 26.775 2.25 26.5387 2.25 26.3137V26.2463C2.25 22.8825 2.91375 19.5975 4.17375 16.5487C5.445 13.5 7.29 10.71 9.675 8.325C11.6213 6.37875 13.9163 4.86 16.4025 3.825C18.9 2.79 21.6 2.25 24.345 2.25C27.5737 2.25 30.7462 3.00375 33.6375 4.44375L36 5.625L38.3625 4.44375C41.2537 3.00375 44.4262 2.25 47.655 2.25C50.4 2.25 53.1 2.79 55.5975 3.825C58.0837 4.86 60.3788 6.37875 62.325 8.325V8.325Z" fill="#FF826E"/>
</g>
<g clip-path="url(#clip6_2_4872)">
<path d="M27 20.25L25.605 20.9475C24.075 21.7013 22.995 23.1188 22.635 24.75H21.375C20.475 24.75 19.6538 25.0988 19.0575 25.6725L18.7538 24.75L18.495 23.985C18.1688 23.0063 18 21.9713 18 20.925C18 18.2475 19.08 15.84 20.835 14.085C22.59 12.33 24.9975 11.25 27.675 11.25H33.075C38.4187 11.25 42.75 15.5813 42.75 20.925C42.75 21.9713 42.5813 23.0063 42.255 23.985L41.6925 25.6725C41.0963 25.11 40.275 24.75 39.375 24.75H38.25H37.8675C35.82 24.75 33.8288 24.345 31.9838 23.58C30.1388 22.815 28.44 21.69 27 20.25V20.25Z" fill="#656D78"/>
</g>
<g clip-path="url(#clip7_2_4872)">
<path d="M30.3752 38.25L33.604 43.6275L30.3752 50.625L27.1465 43.6275L30.3752 38.25Z" fill="#B4DD7F"/>
</g>
<g clip-path="url(#clip8_2_4872)">
<path d="M37.125 36.5626L39.645 37.1926C43.83 38.2388 47.0025 41.5013 48.0262 45.5401C44.82 48.0038 42.75 51.8851 42.75 56.2501C42.75 58.3088 43.2113 60.2551 44.0213 61.9988L36 69.7501L30.375 64.3163V50.6251L33.6038 43.6276L36.8888 36.5063L37.125 36.5626Z" fill="#E6E9ED"/>
</g>
<g clip-path="url(#clip9_2_4872)">
<path d="M23.8612 36.5063L27.1462 43.6276L30.375 50.6251V64.3163L16.875 51.2663V50.6251C16.875 48.1388 18.8888 46.1251 21.375 46.1251V37.1251L23.8612 36.5063Z" fill="#E6E9ED"/>
</g>
<g clip-path="url(#clip10_2_4872)">
<path d="M21.3744 37.125V46.125C18.8881 46.125 16.8744 48.1388 16.8744 50.625V51.2663L12.4531 46.9913C13.0269 42.3 16.4244 38.3625 21.1044 37.1925L21.3744 37.125Z" fill="#E6E9ED"/>
</g>
<g clip-path="url(#clip11_2_4872)">
<path d="M25.0876 36.1914C27.0001 37.6764 28.6201 38.2502 30.3751 38.2502L27.1463 43.6277L23.8613 36.5064L25.0763 36.2027L25.0876 36.1914Z" fill="#CCD1D9"/>
</g>
<g clip-path="url(#clip12_2_4872)">
<path d="M36.8887 36.5064L33.6037 43.6277L30.375 38.2502C32.4112 38.2502 34.2675 37.4739 35.6625 36.1914L35.6737 36.2027L36.8887 36.5064Z" fill="#CCD1D9"/>
</g>
<g clip-path="url(#clip13_2_4872)">
<path d="M44.0213 61.9988C43.2113 60.255 42.75 58.3088 42.75 56.25C42.75 51.885 44.82 48.0037 48.0262 45.54C50.2987 43.785 53.1562 42.75 56.25 42.75C58.4662 42.75 60.5475 43.2788 62.3925 44.2238C66.7575 46.4513 69.75 50.9963 69.75 56.25C69.75 63.7088 63.7088 69.75 56.25 69.75C50.85 69.75 46.1813 66.5775 44.0213 61.9988V61.9988Z" fill="#F0D0B4"/>
</g>
<g clip-path="url(#clip14_2_4872)">
<path d="M37.125 52.875C38.3676 52.875 39.375 51.8676 39.375 50.625C39.375 49.3824 38.3676 48.375 37.125 48.375C35.8824 48.375 34.875 49.3824 34.875 50.625C34.875 51.8676 35.8824 52.875 37.125 52.875Z" fill="#FCD770"/>
</g>
<g clip-path="url(#clip15_2_4872)">
<path d="M63 55.125V57.375C63 57.9938 62.4938 58.5 61.875 58.5H58.5V61.875C58.5 62.4938 57.9938 63 57.375 63H55.125C54.5062 63 54 62.4938 54 61.875V58.5H50.625C50.0062 58.5 49.5 57.9938 49.5 57.375V55.125C49.5 54.5062 50.0062 54 50.625 54H54V50.625C54 50.0062 54.5062 49.5 55.125 49.5H57.375C57.9938 49.5 58.5 50.0062 58.5 50.625V54H61.875C62.4938 54 63 54.5062 63 55.125Z" fill="#FCD770"/>
</g>
<g clip-path="url(#clip16_2_4872)">
<path d="M39.3752 24.75C40.2752 24.75 41.0964 25.11 41.6927 25.6725C42.3452 26.2912 42.7502 27.1575 42.7502 28.125C42.7502 28.5187 42.6827 28.9013 42.5477 29.25C42.3902 29.7338 42.1089 30.1613 41.7602 30.51C41.1527 31.1175 40.3089 31.5 39.3752 31.5H38.1714H38.1602C38.2277 31.1287 38.2502 30.7575 38.2502 30.375V24.75H39.3752Z" fill="#F0D0B4"/>
</g>
<g clip-path="url(#clip17_2_4872)">
<path d="M38.25 24.75V30.375C38.25 30.7575 38.2275 31.1287 38.16 31.5C37.9012 33.3562 36.99 35.01 35.6625 36.1912C34.2675 37.4737 32.4112 38.25 30.375 38.25C28.62 38.25 27 37.6762 25.0875 36.1912C24.9862 36.1237 24.8962 36.0338 24.8062 35.9438C23.625 34.7625 22.8262 33.2325 22.59 31.5C22.5225 31.1287 22.5 30.7575 22.5 30.375V25.9763C22.5 25.56 22.545 25.1437 22.635 24.75C22.995 23.1187 24.075 21.7013 25.605 20.9475L27 20.25C28.44 21.69 30.1388 22.815 31.9838 23.58C33.8288 24.345 35.82 24.75 37.8675 24.75H38.25Z" fill="#F0D0B4"/>
</g>
<g clip-path="url(#clip18_2_4872)">
<path d="M22.5 30.375C22.5 30.7575 22.5225 31.1287 22.59 31.5H22.5787H21.375C20.4412 31.5 19.5975 31.1175 18.99 30.51C18.3825 29.9025 18 29.0587 18 28.125C18 27.1575 18.405 26.2912 19.0575 25.6725C19.6538 25.0987 20.475 24.75 21.375 24.75H22.635C22.545 25.1437 22.5 25.56 22.5 25.9763V30.375Z" fill="#F0D0B4"/>
</g>
</g>
<g clip-path="url(#clip19_2_4872)">
<path d="M61.875 52.875H59.625V50.625C59.625 49.3841 58.6159 48.375 57.375 48.375H55.125C53.8841 48.375 52.875 49.3841 52.875 50.625V52.875H50.625C49.3841 52.875 48.375 53.8841 48.375 55.125V57.375C48.375 58.6159 49.3841 59.625 50.625 59.625H52.875V61.875C52.875 63.1159 53.8841 64.125 55.125 64.125H57.375C58.6159 64.125 59.625 63.1159 59.625 61.875V59.625H61.875C63.1159 59.625 64.125 58.6159 64.125 57.375V55.125C64.125 53.8841 63.1159 52.875 61.875 52.875ZM61.875 57.375H57.375V61.875H55.125V57.375H50.625V55.125H55.125V50.625H57.375V55.125L61.875 55.1228V57.375Z" fill="black"/>
<path d="M64.17 43.974C68.5024 39.0971 70.875 32.8759 70.875 26.2429C70.875 19.1756 68.1232 12.5314 63.126 7.53525C58.9927 3.40087 53.4971 1.125 47.6505 1.125C44.2699 1.125 40.8859 1.92375 37.863 3.43575L36 4.36725L34.137 3.43575C31.113 1.92375 27.729 1.125 24.3495 1.125C18.5029 1.125 13.0084 3.40087 8.874 7.53525C3.87675 12.5314 1.125 19.1756 1.125 26.3104C1.125 33.4856 4.08375 40.4629 9.243 45.45L36 71.3149L43.758 63.8156C46.3252 68.0389 50.9569 70.875 56.25 70.875C64.314 70.875 70.875 64.314 70.875 56.25C70.875 51.1054 68.1975 46.5817 64.17 43.974V43.974ZM56.25 41.625C53.4566 41.625 50.8534 42.426 48.6315 43.7906C47.1566 39.9926 43.9369 37.1059 39.9172 36.1012L37.7246 35.5534C38.3422 34.6793 38.8035 33.6904 39.0791 32.6261H39.375C41.0332 32.6261 42.4688 31.7149 43.2495 30.3761H45.3645L48.6832 38.6752L52.9864 19.3106L55.3905 28.125H68.5373C68.1323 33.6386 65.8912 38.7855 62.1101 42.8591C60.3135 42.0705 58.3346 41.625 56.25 41.625V41.625ZM38.25 50.625C38.25 51.246 37.746 51.75 37.125 51.75C36.504 51.75 36 51.246 36 50.625C36 50.004 36.504 49.5 37.125 49.5C37.746 49.5 38.25 50.004 38.25 50.625ZM13.6789 46.6087C14.3066 42.9862 16.8334 39.9533 20.25 38.6606V45.1136C18.2576 45.5197 16.6691 46.9935 16.0492 48.9004L13.6789 46.6087ZM18 50.625C18 48.7642 19.5142 47.25 21.375 47.25C23.2358 47.25 24.75 48.7642 24.75 50.625V54H27V50.625C27 47.9093 25.0639 45.6367 22.5 45.1136V38.0025L23.2267 37.8214L29.25 50.8725V61.6613L18 50.787V50.625ZM21.375 25.9762V30.375C20.1341 30.375 19.125 29.3659 19.125 28.125C19.125 26.8841 20.1341 25.875 21.375 25.875H21.3818C21.3818 25.9087 21.375 25.9425 21.375 25.9762ZM21.8092 23.625H21.375C20.772 23.625 20.1994 23.7487 19.674 23.9636L19.5649 23.6351C19.2724 22.7599 19.125 21.8498 19.125 20.9295C19.125 16.2124 22.9624 12.375 27.6795 12.375H33.0716C37.7876 12.375 41.625 16.2124 41.625 20.9295C41.625 21.8498 41.4776 22.7599 41.1862 23.6351L41.076 23.9648C40.5506 23.7488 39.978 23.625 39.375 23.625H38.25H37.8641C34.2101 23.625 30.7744 22.2457 28.125 19.7539V16.875H25.875V19.5548L25.1055 19.9395C23.5395 20.7225 22.392 22.05 21.8092 23.625V23.625ZM39.375 25.875C40.6159 25.875 41.625 26.8841 41.625 28.125C41.625 29.3659 40.6159 30.375 39.375 30.375V25.875ZM37.125 30.375C37.125 34.0976 34.0976 37.125 30.375 37.125C26.6524 37.125 23.625 34.0976 23.625 30.375V25.9762C23.625 24.2606 24.5779 22.7182 26.1124 21.951L26.7964 21.609C29.6528 24.201 33.2696 25.6894 37.125 25.8581V30.375ZM25.8547 38.1442C26.6681 38.619 27.558 38.9756 28.5075 39.177L27.2779 41.2267L25.8547 38.1442ZM30.375 47.9396L28.4175 43.6984L30.375 40.4359L32.3325 43.6984L30.375 47.9396ZM33.4733 41.2267L32.2436 39.177C33.1931 38.9756 34.083 38.6201 34.8964 38.1442L33.4733 41.2267ZM10.4648 9.126C14.1739 5.41688 19.1036 3.375 24.3495 3.375C27.3814 3.375 30.4189 4.09162 33.1313 5.44837L36 6.88275L38.8699 5.44837C41.5822 4.09162 44.6186 3.375 47.6505 3.375C52.8952 3.375 57.8261 5.41688 61.5353 9.126C66.0038 13.5956 68.4934 19.5086 68.6036 25.875H57.1095L52.7636 9.9405L48.0668 31.0759L46.8866 28.125H43.875C43.875 27.1114 43.5263 26.1855 42.9581 25.4329L43.3215 24.3461C43.6882 23.2402 43.875 22.0916 43.875 20.9295C43.875 14.9715 39.0274 10.125 33.0705 10.125H27.6784C21.7226 10.125 16.875 14.9715 16.875 20.9295C16.875 21.8408 16.9943 22.7441 17.2215 23.625H16.4452L11.7191 14.1739L9.57487 31.3301L7.52962 25.875H3.393C3.4875 19.548 5.9805 13.6103 10.4648 9.126V9.126ZM3.47062 28.125H5.97038L10.6762 40.6699L13.032 21.8261L15.0548 25.875H17.5005C17.1135 26.5399 16.875 27.3015 16.875 28.125C16.875 30.6068 18.8932 32.625 21.375 32.625H21.6709C21.9465 33.6892 22.4077 34.6781 23.0254 35.5522L20.8328 36.1001C16.4745 37.1902 13.0444 40.5551 11.7799 44.7739L10.8068 43.8334C6.53288 39.7001 3.93075 34.0751 3.47062 28.125V28.125ZM36 68.1851L31.5 63.8348V50.8725L36 41.1221V47.457C34.6939 47.9227 33.75 49.1602 33.75 50.625C33.75 52.4858 35.2642 54 37.125 54C38.9858 54 40.5 52.4858 40.5 50.625C40.5 49.1602 39.5561 47.9227 38.25 47.457V38.0025L39.3716 38.2826C42.8726 39.159 45.6232 41.7757 46.7224 45.1777C43.6084 47.862 41.625 51.8254 41.625 56.25C41.625 58.1827 42.0109 60.0244 42.6949 61.7141L36 68.1851ZM56.25 68.625C49.4269 68.625 43.875 63.0731 43.875 56.25C43.875 49.4269 49.4269 43.875 56.25 43.875C63.0731 43.875 68.625 49.4269 68.625 56.25C68.625 63.0731 63.0731 68.625 56.25 68.625Z" fill="black"/>
<path d="M27 29.25C27.6213 29.25 28.125 28.7463 28.125 28.125C28.125 27.5037 27.6213 27 27 27C26.3787 27 25.875 27.5037 25.875 28.125C25.875 28.7463 26.3787 29.25 27 29.25Z" fill="black"/>
<path d="M33.75 29.25C34.3713 29.25 34.875 28.7463 34.875 28.125C34.875 27.5037 34.3713 27 33.75 27C33.1287 27 32.625 27.5037 32.625 28.125C32.625 28.7463 33.1287 29.25 33.75 29.25Z" fill="black"/>
<path d="M28.0068 30.9972L25.9941 32.0041L26.1123 32.2403C26.9245 33.866 28.558 34.8751 30.3749 34.8751C32.1918 34.8751 33.8253 33.866 34.6375 32.2403L34.7556 32.003L32.743 30.9961L32.6249 31.2346C32.1963 32.0918 31.3345 32.6251 30.3749 32.6251C29.4153 32.6251 28.5535 32.0918 28.1249 31.2346L28.0068 30.9972Z" fill="black"/>
</g>
</g>
</g>
<defs>
<clipPath id="clip0_2_4872">
<rect width="72" height="72" fill="white"/>
</clipPath>
<clipPath id="clip1_2_4872">
<rect width="69.75" height="70.1899" fill="white" transform="translate(1.125 1.125)"/>
</clipPath>
<clipPath id="clip2_2_4872">
<rect width="67.5" height="67.5" fill="white" transform="translate(2.25 2.25)"/>
</clipPath>
<clipPath id="clip3_2_4872">
<rect width="22.815" height="28.9912" fill="white" transform="translate(2.27344 18)"/>
</clipPath>
<clipPath id="clip4_2_4872">
<rect width="34.065" height="30.915" fill="white" transform="translate(35.6621 14.625)"/>
</clipPath>
<clipPath id="clip5_2_4872">
<rect width="67.5" height="33.75" fill="white" transform="translate(2.25 2.25)"/>
</clipPath>
<clipPath id="clip6_2_4872">
<rect width="24.75" height="14.4225" fill="white" transform="translate(18 11.25)"/>
</clipPath>
<clipPath id="clip7_2_4872">
<rect width="6.4575" height="12.375" fill="white" transform="translate(27.1465 38.25)"/>
</clipPath>
<clipPath id="clip8_2_4872">
<rect width="17.6512" height="33.2437" fill="white" transform="translate(30.375 36.5063)"/>
</clipPath>
<clipPath id="clip9_2_4872">
<rect width="13.5" height="27.81" fill="white" transform="translate(16.875 36.5063)"/>
</clipPath>
<clipPath id="clip10_2_4872">
<rect width="8.92125" height="14.1413" fill="white" transform="translate(12.4531 37.125)"/>
</clipPath>
<clipPath id="clip11_2_4872">
<rect width="6.51375" height="7.43625" fill="white" transform="translate(23.8613 36.1914)"/>
</clipPath>
<clipPath id="clip12_2_4872">
<rect width="6.51375" height="7.43625" fill="white" transform="translate(30.375 36.1914)"/>
</clipPath>
<clipPath id="clip13_2_4872">
<rect width="27" height="27" fill="white" transform="translate(42.75 42.75)"/>
</clipPath>
<clipPath id="clip14_2_4872">
<rect width="4.5" height="4.5" fill="white" transform="translate(34.875 48.375)"/>
</clipPath>
<clipPath id="clip15_2_4872">
<rect width="13.5" height="13.5" fill="white" transform="translate(49.5 49.5)"/>
</clipPath>
<clipPath id="clip16_2_4872">
<rect width="4.59" height="6.75" fill="white" transform="translate(38.1602 24.75)"/>
</clipPath>
<clipPath id="clip17_2_4872">
<rect width="15.75" height="18" fill="white" transform="translate(22.5 20.25)"/>
</clipPath>
<clipPath id="clip18_2_4872">
<rect width="4.635" height="6.75" fill="white" transform="translate(18 24.75)"/>
</clipPath>
<clipPath id="clip19_2_4872">
<rect width="69.75" height="70.1899" fill="white" transform="translate(1.125 1.125)"/>
</clipPath>
</defs>
</svg>
