<svg width="72" height="72" viewBox="0 0 72 72" fill="none" xmlns="http://www.w3.org/2000/svg">
<g clip-path="url(#clip0_2_4825)">
<path d="M36 6.75V9H9V6.75C9 4.26375 11.0138 2.25 13.5 2.25H31.5C33.9862 2.25 36 4.26375 36 6.75Z" fill="#AAB2BD"/>
<path d="M36 36V40.5C36 42.9862 33.9862 45 31.5 45H13.5C11.0138 45 9 42.9862 9 40.5V36H36Z" fill="#AAB2BD"/>
<path d="M36 25.875V36H9V25.875V21.375V9H36V21.375V25.875Z" fill="#69D6F4"/>
<path d="M31.5 31.5H13.5C13.5 26.5275 17.5275 22.5 22.5 22.5C24.9862 22.5 27.2363 23.5125 28.8675 25.1325C30.4875 26.7638 31.5 29.0138 31.5 31.5Z" fill="#E6E9ED"/>
<path d="M22.5 22.5C24.9853 22.5 27 20.4853 27 18C27 15.5147 24.9853 13.5 22.5 13.5C20.0147 13.5 18 15.5147 18 18C18 20.4853 20.0147 22.5 22.5 22.5Z" fill="#F0D0B4"/>
<path d="M61.7962 2.25C59.6812 2.25 57.6675 3.0825 56.1713 4.57875L55.125 5.625L54.0787 4.57875C52.5825 3.0825 50.5687 2.25 48.4537 2.25C44.0887 2.25 40.545 5.77125 40.5 10.125V10.2037V10.935C40.5 13.275 41.535 15.4913 43.3125 17.01L55.125 27L66.9375 17.01C68.6363 15.5588 69.66 13.4775 69.7388 11.25C69.75 11.1487 69.75 11.0363 69.75 10.935V10.2037C69.75 5.81625 66.1837 2.25 61.7962 2.25Z" fill="#FF826E"/>
<path d="M63 39.375C63 42.9412 60.6263 45.9562 57.375 46.9237V45C57.375 44.3812 57.1275 43.8187 56.7113 43.4137C56.3063 42.9975 55.7438 42.75 55.125 42.75C53.8875 42.75 52.875 43.7625 52.875 45V46.9125H52.83C49.6012 45.9225 47.25 42.9187 47.25 39.375C47.25 35.0212 50.7713 31.5 55.125 31.5C59.4787 31.5 63 35.0212 63 39.375Z" fill="#FFEAA7"/>
<g clip-path="url(#clip1_2_4825)">
<path d="M57.375 46.9237V51.75H55.125H52.875V46.9125V45C52.875 43.7625 53.8875 42.75 55.125 42.75C55.7438 42.75 56.3062 42.9975 56.7112 43.4138C57.1275 43.8188 57.375 44.3812 57.375 45V46.9237Z" fill="#FCD770"/>
<path d="M42.75 23.625V25.875H36V21.375H42.75V23.625Z" fill="#FCD770"/>
<path d="M9 21.375V25.875H2.25V23.625V21.375H9Z" fill="#FCD770"/>
</g>
<path d="M32.625 32.625V31.5C32.625 27.261 30.0038 23.6273 26.2991 22.1209C27.414 21.0926 28.125 19.6324 28.125 18C28.125 14.8984 25.6016 12.375 22.5 12.375C19.3984 12.375 16.875 14.8984 16.875 18C16.875 19.6324 17.586 21.0926 18.7009 22.1209C14.9962 23.6273 12.375 27.261 12.375 31.5V32.625H32.625ZM19.125 18C19.125 16.1392 20.6392 14.625 22.5 14.625C24.3608 14.625 25.875 16.1392 25.875 18C25.875 19.8608 24.3608 21.375 22.5 21.375C20.6392 21.375 19.125 19.8608 19.125 18ZM22.5 23.625C26.4611 23.625 29.7473 26.5635 30.2951 30.375H14.7049C15.2527 26.5635 18.5389 23.625 22.5 23.625Z" fill="black"/>
<path d="M18 39.375H27V41.625H18V39.375Z" fill="black"/>
<path d="M61.7951 1.125C59.3708 1.125 57.0893 2.07 55.3748 3.7845L55.125 4.03425L54.8752 3.7845C53.1607 2.07 50.8804 1.125 48.4549 1.125C43.4486 1.125 39.375 5.19863 39.375 10.2049V10.935C39.375 13.6103 40.5473 16.137 42.5903 17.8661L55.125 28.4737L67.6597 17.8673C69.7027 16.1381 70.875 13.6114 70.875 10.9361V10.2049C70.875 5.19863 66.8014 1.125 61.7951 1.125V1.125ZM48.4549 3.375C50.2785 3.375 51.9941 4.086 53.2845 5.37525L55.125 7.21575L56.9655 5.37525C58.2548 4.086 59.9715 3.375 61.7951 3.375C65.5346 3.375 68.5778 6.39562 68.6216 10.125H59.94L58.2919 15.0682L55.3174 9.11925L51.8546 13.7362L49.0118 9H41.7375C42.3101 5.80725 45.1012 3.375 48.4549 3.375ZM66.2074 16.1482L55.125 25.5263L44.0426 16.1482C42.5869 14.9152 41.7285 13.1445 41.6419 11.25H47.7371L51.6454 17.7638L54.9326 13.3807L58.7081 20.9318L61.5611 12.375H68.4709C68.1559 13.8353 67.3706 15.1639 66.2074 16.1482V16.1482Z" fill="black"/>
<path d="M55.125 30.375C50.1626 30.375 46.125 34.4126 46.125 39.375C46.125 43.0898 48.3637 46.3219 51.75 47.6899V52.875H54V64.125C54 66.6068 51.9818 68.625 49.5 68.625C47.0182 68.625 45 66.6068 45 64.125V61.875C45 58.1524 41.9726 55.125 38.25 55.125C34.5274 55.125 31.5 58.1524 31.5 61.875V64.6875C31.5 66.8587 29.7337 68.625 27.5625 68.625C25.3913 68.625 23.625 66.8587 23.625 64.6875V56.1926C34.8874 55.602 43.875 46.2814 43.875 34.875V27V23.625V20.25H37.125V6.75C37.125 3.64838 34.6016 1.125 31.5 1.125H13.5C10.3984 1.125 7.875 3.64838 7.875 6.75V20.25H1.125V23.625V27V34.875C1.125 46.2814 10.1126 55.602 21.375 56.1926V64.6875C21.375 68.0985 24.1515 70.875 27.5625 70.875C30.9735 70.875 33.75 68.0985 33.75 64.6875V61.875C33.75 59.3932 35.7682 57.375 38.25 57.375C40.7318 57.375 42.75 59.3932 42.75 61.875V64.125C42.75 67.8476 45.7774 70.875 49.5 70.875C53.2226 70.875 56.25 67.8476 56.25 64.125V52.875H58.5V47.6876C61.8435 46.3241 64.125 43.0369 64.125 39.375C64.125 34.4126 60.0874 30.375 55.125 30.375ZM41.625 22.5V23.625V24.75H37.125V22.5H41.625ZM10.125 37.125H34.875V40.5C34.875 42.3608 33.3608 43.875 31.5 43.875H13.5C11.6392 43.875 10.125 42.3608 10.125 40.5V37.125ZM34.875 34.875H10.125V10.125H34.875V34.875ZM13.5 3.375H31.5C33.3608 3.375 34.875 4.88925 34.875 6.75V7.875H10.125V6.75C10.125 4.88925 11.6392 3.375 13.5 3.375ZM3.375 22.5H7.875V24.75H3.375V23.625V22.5ZM3.375 34.875V27H7.875V40.5C7.875 43.6016 10.3984 46.125 13.5 46.125H31.5C34.6016 46.125 37.125 43.6016 37.125 40.5V27H41.625V34.875C41.625 45.4207 33.0457 54 22.5 54C11.9543 54 3.375 45.4207 3.375 34.875ZM56.25 50.625H54V45C54 44.379 54.504 43.875 55.125 43.875C55.746 43.875 56.25 44.379 56.25 45V50.625ZM58.5 45.1958V45C58.5 43.1392 56.9858 41.625 55.125 41.625C53.2642 41.625 51.75 43.1392 51.75 45V45.2025C49.6924 44.0179 48.375 41.8388 48.375 39.375C48.375 35.6524 51.4024 32.625 55.125 32.625C58.8476 32.625 61.875 35.6524 61.875 39.375C61.875 41.8005 60.5362 44.0044 58.5 45.1958Z" fill="black"/>
</g>
<defs>
<clipPath id="clip0_2_4825">
<rect width="72" height="72" fill="white"/>
</clipPath>
<clipPath id="clip1_2_4825">
<rect width="55.125" height="30.375" fill="white" transform="translate(2.25 21.375)"/>
</clipPath>
</defs>
</svg>
