<svg width="72" height="72" viewBox="0 0 72 72" fill="none" xmlns="http://www.w3.org/2000/svg">
<g clip-path="url(#clip0_2_4847)">
<path d="M54 46.8V62.3999C54 64.3883 52.3884 65.9999 50.4 65.9999H21.6C19.6116 65.9999 18 64.3883 18 62.3999V9.6C18 7.61156 19.6116 6 21.6 6H50.4C52.3884 6 54 7.61156 54 9.6V46.8Z" fill="white"/>
<path d="M54 15.6001H18V56.4H54V15.6001Z" fill="#29ABE2"/>
<path d="M5.99966 40.8002H19.1997L26.3997 45.6001V40.8002H29.9997C31.3257 40.8002 32.3997 39.7262 32.3997 38.4001V24.0001C32.3997 22.6742 31.3258 21.6001 29.9997 21.6001H5.99966C4.6737 21.6001 3.59961 22.6741 3.59961 24.0001V38.4001C3.59961 39.7262 4.67356 40.8002 5.99966 40.8002Z" fill="white"/>
<path d="M65.9997 46.8002H52.7997L45.5997 51.6001V46.8002H41.9997C40.6737 46.8002 39.5996 45.7262 39.5996 44.4001V27.6002C39.5996 26.2743 40.6736 25.2002 41.9997 25.2002H65.9997C67.3257 25.2002 68.3997 26.2741 68.3997 27.6002V44.4003C68.3997 45.7262 67.3258 46.8002 65.9997 46.8002Z" fill="#E6E6E6"/>
<path d="M48 33.6H51.6V30H56.4001V33.6H60.0001V38.4001H56.4001V42.0001H51.6V38.4001H48V33.6Z" fill="white"/>
<path d="M13.2008 25.2002H10.8008V27.6002H13.2008V25.2002Z" fill="black"/>
<path d="M27.5996 25.2002H15.5996V27.6002H27.5996V25.2002Z" fill="black"/>
<path d="M27.6003 30H8.40039V32.4H27.6003V30Z" fill="black"/>
<path d="M22.8004 34.7998H8.40039V37.1998H22.8004V34.7998Z" fill="black"/>
<path d="M37.2008 60H34.8008V62.4H37.2008V60Z" fill="black"/>
<path d="M39.5993 9.6001H37.1992V12.0001H39.5993V9.6001Z" fill="black"/>
<path d="M34.8004 9.6001H32.4004V12.0001H34.8004V9.6001Z" fill="black"/>
<path d="M16.8004 9.60025V20.4002H6.00039C4.01195 20.4002 2.40039 22.0118 2.40039 24.0002V38.4002C2.40039 40.3887 4.01195 42.0002 6.00039 42.0002H16.8004V62.4003C16.8004 65.0511 18.9496 67.2002 21.6003 67.2002H50.4003C53.0511 67.2002 55.2003 65.0511 55.2003 62.4003V48.0003H66.0003C67.9887 48.0003 69.6003 46.3887 69.6003 44.4003V27.6002C69.6003 25.6118 67.9887 24.0002 66.0003 24.0002H55.2003V9.60025C55.2003 6.94946 53.0511 4.80029 50.4003 4.80029H21.6003C18.9496 4.80015 16.8004 6.94946 16.8004 9.60025ZM4.8003 38.4002V24.0002C4.8003 23.3379 5.33791 22.8003 6.00025 22.8003H30.0003C30.6626 22.8003 31.2003 23.3379 31.2003 24.0002V38.4002C31.2003 39.0626 30.6626 39.6002 30.0003 39.6002H26.4003C25.738 39.6002 25.2003 40.1378 25.2003 40.8001V43.3574L19.8663 39.8019C19.6683 39.6711 19.4367 39.6002 19.2003 39.6002H6.00039C5.33791 39.6002 4.8003 39.0626 4.8003 38.4002ZM50.4003 64.8002H21.6003C20.2744 64.8002 19.2003 63.7262 19.2003 62.4001V57.6002H52.8003V62.4001C52.8004 63.7262 51.7263 64.8002 50.4003 64.8002ZM67.2004 27.6002V44.4003C67.2004 45.0626 66.6628 45.6002 66.0004 45.6002H52.8004C52.564 45.6002 52.3324 45.671 52.1344 45.8019L46.8003 49.3575V46.8002C46.8003 46.1379 46.2627 45.6002 45.6004 45.6002H42.0004C41.338 45.6002 40.8004 45.0626 40.8004 44.4003V27.6002C40.8004 26.9379 41.338 26.4003 42.0004 26.4003H66.0004C66.6628 26.4001 67.2004 26.9378 67.2004 27.6002ZM42.0004 24.0002C40.012 24.0002 38.4004 25.6118 38.4004 27.6002V44.4003C38.4004 46.3887 40.012 48.0003 42.0004 48.0003H44.4004V51.6003C44.4004 52.2626 44.9381 52.8002 45.6004 52.8002C45.8381 52.8002 46.0697 52.7306 46.2664 52.5986L52.8004 48.2402V55.2001H19.2003V42.2401L25.7343 46.5961C26.2851 46.9646 27.0303 46.8158 27.3987 46.2637C27.5295 46.067 27.6004 45.8365 27.6004 45.6001V42.0001H30.0004C31.9889 42.0001 33.6004 40.3885 33.6004 38.4001V24.0001C33.6004 22.0117 31.9889 20.4001 30.0004 20.4001H19.2004V16.8001H52.8004V24.0001H42.0004V24.0002ZM52.8004 9.60025V14.4002H19.2003V9.60025C19.2003 8.27429 20.2743 7.2002 21.6003 7.2002H50.4003C51.7263 7.2002 52.8004 8.27415 52.8004 9.60025Z" fill="black"/>
<path d="M12 63.6C12.0048 68.2369 15.7633 71.9952 20.3999 72V69.6C17.0879 69.5963 14.4036 66.9119 14.3999 63.5999V54H12V63.6Z" fill="black"/>
<path d="M14.4 49.2002H12V51.6002H14.4V49.2002Z" fill="black"/>
<path d="M60.0001 8.39995C59.9953 3.76327 56.2368 0.00478125 51.6 0H48V2.40005H51.6C54.912 2.4037 57.5964 5.08809 57.6 8.40009V14.4H60.0001V8.39995V8.39995Z" fill="black"/>
<path d="M59.9997 16.7998H57.5996V19.1999H59.9997V16.7998Z" fill="black"/>
<path d="M48.0006 39.6002H50.4006V42.0002C50.4006 42.6625 50.9383 43.2002 51.6006 43.2002H56.4005C57.0629 43.2002 57.6005 42.6625 57.6005 42.0002V39.6002H60.0005C60.6629 39.6002 61.2005 39.0625 61.2005 38.4002V33.6002C61.2005 32.9379 60.6629 32.4003 60.0005 32.4003H57.6006V30.0002C57.6006 29.3379 57.063 28.8003 56.4007 28.8003H51.6007C50.9384 28.8003 50.4008 29.3379 50.4008 30.0002V32.4002H48.0007C47.3384 32.4002 46.8008 32.9378 46.8008 33.6001V38.4001C46.8006 39.0625 47.3383 39.6002 48.0006 39.6002ZM49.2007 34.8002H51.6007C52.2631 34.8002 52.8007 34.2626 52.8007 33.6002V31.2002H55.2007V33.6002C55.2007 34.2626 55.7383 34.8002 56.4007 34.8002H58.8007V37.2002H56.4007C55.7383 37.2002 55.2007 37.7379 55.2007 38.4002V40.8002H52.8007V38.4002C52.8007 37.7379 52.2631 37.2002 51.6007 37.2002H49.2007V34.8002Z" fill="black"/>
</g>
<defs>
<clipPath id="clip0_2_4847">
<rect width="72" height="72" fill="white"/>
</clipPath>
</defs>
</svg>
